<mxfile host="app.diagrams.net" modified="2022-12-11T12:03:10.624Z" agent="5.0 (Windows NT 10.0; Win64; x64) AppleWebKit/537.36 (KHTML, like Gecko) Chrome/106.0.0.0 YaBrowser/22.11.2.807 Yowser/2.5 Safari/537.36" etag="PJX4zBg8j4iMCtGFvv-2" version="20.6.0" type="github">
  <diagram id="C5RBs43oDa-KdzZeNtuy" name="Page-1">
    <mxGraphModel dx="2201" dy="799" grid="1" gridSize="10" guides="1" tooltips="1" connect="1" arrows="1" fold="1" page="1" pageScale="1" pageWidth="827" pageHeight="1169" math="0" shadow="0">
      <root>
        <mxCell id="WIyWlLk6GJQsqaUBKTNV-0" />
        <mxCell id="WIyWlLk6GJQsqaUBKTNV-1" parent="WIyWlLk6GJQsqaUBKTNV-0" />
        <mxCell id="JJHKJbkncqgu617OYgFC-2" value="" style="edgeStyle=orthogonalEdgeStyle;rounded=0;orthogonalLoop=1;jettySize=auto;html=1;" edge="1" parent="WIyWlLk6GJQsqaUBKTNV-1" source="JJHKJbkncqgu617OYgFC-0" target="JJHKJbkncqgu617OYgFC-1">
          <mxGeometry relative="1" as="geometry" />
        </mxCell>
        <mxCell id="JJHKJbkncqgu617OYgFC-0" value="Начало" style="strokeWidth=2;html=1;shape=mxgraph.flowchart.terminator;whiteSpace=wrap;" vertex="1" parent="WIyWlLk6GJQsqaUBKTNV-1">
          <mxGeometry y="70" width="140" height="60" as="geometry" />
        </mxCell>
        <mxCell id="JJHKJbkncqgu617OYgFC-4" value="" style="edgeStyle=orthogonalEdgeStyle;rounded=0;orthogonalLoop=1;jettySize=auto;html=1;" edge="1" parent="WIyWlLk6GJQsqaUBKTNV-1" source="JJHKJbkncqgu617OYgFC-1" target="JJHKJbkncqgu617OYgFC-3">
          <mxGeometry relative="1" as="geometry" />
        </mxCell>
        <mxCell id="JJHKJbkncqgu617OYgFC-1" value="p,l,i=1" style="whiteSpace=wrap;html=1;strokeWidth=2;" vertex="1" parent="WIyWlLk6GJQsqaUBKTNV-1">
          <mxGeometry y="160" width="140" height="60" as="geometry" />
        </mxCell>
        <mxCell id="JJHKJbkncqgu617OYgFC-6" value="" style="edgeStyle=orthogonalEdgeStyle;rounded=0;orthogonalLoop=1;jettySize=auto;html=1;" edge="1" parent="WIyWlLk6GJQsqaUBKTNV-1" source="JJHKJbkncqgu617OYgFC-3" target="JJHKJbkncqgu617OYgFC-5">
          <mxGeometry relative="1" as="geometry" />
        </mxCell>
        <mxCell id="JJHKJbkncqgu617OYgFC-3" value="Ввод p,l" style="shape=parallelogram;perimeter=parallelogramPerimeter;whiteSpace=wrap;html=1;fixedSize=1;strokeWidth=2;" vertex="1" parent="WIyWlLk6GJQsqaUBKTNV-1">
          <mxGeometry y="250" width="140" height="60" as="geometry" />
        </mxCell>
        <mxCell id="JJHKJbkncqgu617OYgFC-8" style="edgeStyle=orthogonalEdgeStyle;rounded=0;orthogonalLoop=1;jettySize=auto;html=1;exitX=0.5;exitY=1;exitDx=0;exitDy=0;entryX=0;entryY=0.5;entryDx=0;entryDy=0;" edge="1" parent="WIyWlLk6GJQsqaUBKTNV-1" source="JJHKJbkncqgu617OYgFC-5" target="JJHKJbkncqgu617OYgFC-5">
          <mxGeometry relative="1" as="geometry">
            <mxPoint x="-10" y="420" as="targetPoint" />
            <Array as="points">
              <mxPoint x="70" y="440" />
              <mxPoint x="-50" y="440" />
              <mxPoint x="-50" y="380" />
            </Array>
          </mxGeometry>
        </mxCell>
        <mxCell id="JJHKJbkncqgu617OYgFC-10" style="edgeStyle=orthogonalEdgeStyle;rounded=0;orthogonalLoop=1;jettySize=auto;html=1;exitX=1;exitY=0.5;exitDx=0;exitDy=0;entryX=0.5;entryY=0;entryDx=0;entryDy=0;entryPerimeter=0;" edge="1" parent="WIyWlLk6GJQsqaUBKTNV-1" source="JJHKJbkncqgu617OYgFC-5" target="JJHKJbkncqgu617OYgFC-9">
          <mxGeometry relative="1" as="geometry" />
        </mxCell>
        <mxCell id="JJHKJbkncqgu617OYgFC-5" value="i&amp;lt;p; printf(&quot;%.7f&quot;,&lt;br&gt;sqrt(i++/p)*l)" style="shape=hexagon;perimeter=hexagonPerimeter2;whiteSpace=wrap;html=1;fixedSize=1;strokeWidth=2;" vertex="1" parent="WIyWlLk6GJQsqaUBKTNV-1">
          <mxGeometry y="340" width="140" height="80" as="geometry" />
        </mxCell>
        <mxCell id="JJHKJbkncqgu617OYgFC-9" value="Конец" style="strokeWidth=2;html=1;shape=mxgraph.flowchart.terminator;whiteSpace=wrap;" vertex="1" parent="WIyWlLk6GJQsqaUBKTNV-1">
          <mxGeometry y="490" width="140" height="60" as="geometry" />
        </mxCell>
      </root>
    </mxGraphModel>
  </diagram>
</mxfile>
